<?xml version="1.0" encoding="utf-8"?>
<!-- Generator: Adobe Illustrator 25.3.1, SVG Export Plug-In . SVG Version: 6.00 Build 0)  -->
<svg version="1.1" id="Layer_1" xmlns="http://www.w3.org/2000/svg" xmlns:xlink="http://www.w3.org/1999/xlink" x="0px" y="0px"
	 viewBox="0 0 238 58" style="enable-background:new 0 0 238 58;" xml:space="preserve">
<style type="text/css">
	.st0{fill:#00AEEF;}
	.st1{fill:none;}
</style>
<path class="st0" d="M0.01,0h13.9c4.08,0,6.03,0.28,7.76,0.95c4.52,1.72,7.36,5.77,7.36,11.54c0,4.21-2.01,8.83-5.97,10.82v0.11
	c0,0,0.56,0.72,1.5,2.39l7.76,13.87H21.44l-7.09-13.38H9.77v13.38H0V0H0.01z M14.02,17.98c3.13,0,5.08-1.72,5.08-4.88
	c0-3-1.12-4.77-6.03-4.77h-3.3v9.65C9.77,17.98,14.02,17.98,14.02,17.98z"/>
<path class="st0" d="M46.4,10.43c8.49,0,13.29,5.89,13.29,13.82c0,0.95-0.22,3-0.22,3H41.32c0.72,3.5,3.63,5.11,6.7,5.11
	c4.13,0,7.93-2.89,7.93-2.89l3.58,6.71c0,0-4.63,4.16-12.28,4.16c-10.27,0-15.8-7.38-15.8-14.98C31.44,16.98,37.14,10.43,46.4,10.43
	z M49.98,21.75c0-2.16-1.51-4.1-3.8-4.1c-2.8,0-4.13,2-4.63,4.1H49.98z"/>
<path class="st0" d="M63.37,11.1h9.27v2.5c0,0.95-0.11,1.77-0.11,1.77h0.11c1.34-2.22,4.08-4.94,9.16-4.94
	c5.8,0,10.33,2.66,10.33,10.71v18.54h-9.66V22.92c0-2.66-1.06-3.78-3.19-3.78c-3.02,0-4.86,1.66-5.69,4.1
	c-0.39,1.11-0.56,2.39-0.56,3.78v12.65h-9.66L63.37,11.1L63.37,11.1z"/>
<path class="st0" d="M99.13,19.09h-3.69V11.6h3.97V3.39h9.38v8.22h6.03v7.49h-6.03v8.77c0,3.22,3.3,3.67,5.14,3.67
	c0.78,0,1.28-0.06,1.28-0.06v8.33c0,0-1.06,0.17-2.63,0.17c-4.58,0-13.46-1.23-13.46-10.82L99.13,19.09L99.13,19.09z"/>
<g>
	<path class="st1" d="M135.83,8.33h-4.97v10.77h4.8c3.41,0,5.08-2.27,5.08-5.44C140.74,10.49,139.07,8.33,135.83,8.33z"/>
	<path d="M150.68,13.66c0-7.99-5.25-13.65-13.01-13.65h-16.58v28.75c9.75-5.08,19.56-8.52,29.02-10.74
		C150.48,16.65,150.68,15.2,150.68,13.66z M135.66,19.09h-4.8V8.33h4.97c3.24,0,4.91,2.16,4.91,5.33
		C140.74,16.81,139.07,19.09,135.66,19.09z"/>
	<path d="M160.78,40.34c6.03,0,8.15-4.16,8.15-4.16h0.11c0,0-0.11,0.84-0.11,1.77v1.72h8.82V28.21c-6.71,2.9-13.53,6.73-19.83,11.78
		C158.83,40.22,159.79,40.34,160.78,40.34z"/>
	<path d="M164.8,10.43c-7.09,0-12.05,3.72-12.05,3.72l1.46,2.97c7.35-1.48,14.44-2.26,21.06-2.57
		C173.07,11.9,169.48,10.43,164.8,10.43z"/>
	<path d="M183.03,29.13c0,9.6,8.88,10.82,13.46,10.82c1.56,0,2.63-0.17,2.63-0.17v-8.33c0,0-0.5,0.06-1.28,0.06
		c-1.84,0-5.14-0.45-5.14-3.67v-4.8c-3.11,0.83-6.34,1.83-9.66,3.05L183.03,29.13L183.03,29.13z"/>
	<path d="M198.72,15.31V11.6h-6.03V3.39h-9.38v8.22h-3.97v2.82C186.55,14.28,193.1,14.68,198.72,15.31z"/>
	<path d="M203.19,39.68h9.66V27.03c0-1.33,0.11-2.55,0.5-3.67c0.84-2.5,2.8-4.21,5.75-4.21c0,0-6.46-0.03-15.91,1.6V39.68z"/>
	<path d="M221.62,10.43c-3.8,0-7.14,1.72-8.77,4.55h-0.11c0,0,0.11-1,0.11-2.44V0h-9.66v15.87c9.88,1.39,15.91,3.28,15.91,3.28
		c2.12,0,3.19,1.11,3.19,3.78v16.76h9.66V21.15C231.94,13.1,227.42,10.43,221.62,10.43z"/>
	<path class="st0" d="M130.86,39.68V27.41h6.81c6.26,0,10.88-3.76,12.44-9.41c-9.45,2.22-19.27,5.65-29.02,10.74v10.94L130.86,39.68
		L130.86,39.68z"/>
	<path class="st0" d="M175.27,14.54c-6.62,0.31-13.71,1.09-21.06,2.57l1.88,3.8c0,0,4.13-2.72,7.76-2.72c2.4,0,4.24,0.78,4.24,3.17
		v0.5h-0.39c-4.47,0-16.69,0.95-16.69,9.26c0,4.61,2.93,7.82,6.91,8.85c6.3-5.05,13.12-8.88,19.83-11.78v-6.12
		C177.76,19.01,176.88,16.47,175.27,14.54z M163.46,33.02c-1.89,0-2.74-1.06-2.74-2.39c0-2.39,3.52-3.28,6.58-3.28h0.89v0.61
		C168.21,30.3,165.97,33.02,163.46,33.02z"/>
	<path class="st0" d="M198.72,19.09v-3.78c-5.62-0.62-12.17-1.03-19.37-0.89v4.67h3.69v7.01c3.31-1.22,6.55-2.22,9.66-3.05v-3.96
		H198.72z"/>
	<path class="st0" d="M203.19,20.76c9.45-1.63,15.91-1.6,15.91-1.6s-6.02-1.88-15.91-3.28V20.76z"/>
</g>
<g>
	<path class="st0" d="M235.44,17.71c1.39,0,2.56,1.1,2.56,2.52c0,1.45-1.16,2.55-2.56,2.55c-1.4,0-2.58-1.1-2.58-2.55
		C232.88,18.81,234.05,17.71,235.44,17.71z M235.44,22.41c1.18,0,2.09-0.94,2.09-2.18c0-1.22-0.91-2.15-2.09-2.15
		c-1.19,0-2.1,0.94-2.1,2.15C233.34,21.47,234.25,22.41,235.44,22.41z M234.45,18.77h1.15c0.71,0,1.04,0.28,1.04,0.85
		c0,0.54-0.34,0.76-0.78,0.81l0.85,1.3h-0.5l-0.81-1.27h-0.49v1.27h-0.46L234.45,18.77L234.45,18.77z M234.91,20.08h0.48
		c0.41,0,0.78-0.02,0.78-0.49c0-0.39-0.34-0.46-0.65-0.46h-0.61L234.91,20.08L234.91,20.08z"/>
</g>
<g id="Redfin_Logo_1_">
	<g id="Logotype_3_">
		<g>
			<path d="M154.88,48.19c-0.86-0.57-2.01-0.78-3.56-0.78h-2.92V57h2.98c1.06,0,1.97-0.14,2.74-0.44c0.76-0.31,1.36-0.81,1.77-1.51
				c0.4-0.71,0.62-1.63,0.62-2.81c0-1.02-0.13-1.84-0.39-2.52C155.84,49.07,155.43,48.56,154.88,48.19z M154.1,53.91
				c-0.14,0.48-0.37,0.85-0.73,1.1c-0.39,0.28-0.98,0.43-1.71,0.43h-1.04v-6.44h0.87c0.86,0,1.5,0.14,1.93,0.46
				c0.31,0.23,0.53,0.56,0.67,1c0.14,0.45,0.21,1.01,0.21,1.69C154.3,52.84,154.25,53.43,154.1,53.91z"/>
			<polygon points="157.89,57 160.09,57 160.09,52.92 162.64,52.92 162.64,51.36 160.09,51.36 160.09,49 164.03,49 164.03,47.41 
				157.89,47.41 			"/>
			<path d="M165.42,57h2.2v-9.59h-2.2C165.42,47.41,165.4,57,165.42,57z"/>
			<polygon points="177.33,47.41 175.11,47.41 175.11,52.92 171.01,47.41 169.25,47.41 169.25,57 171.47,57 171.47,51.36 175.52,57 
				177.33,57 			"/>
			<path d="M140.08,57.37c-0.18-0.07-0.37-0.22-0.87-1.05l-0.99-1.63l-1.17-1.93l-0.1-0.16c0.06-0.02,0.11-0.03,0.17-0.05
				c1.34-0.46,2.13-1.68,2.13-3.43c0-0.87-0.35-1.66-1.02-2.26c-0.1-0.08-0.2-0.16-0.31-0.23c-0.89-0.59-2.1-0.81-3.71-0.81h-3.04
				l0,0l0,0h-0.04c-0.2,0-0.22,0.11-0.14,0.21c0.07,0.09,0.15,0.21,0.18,0.52v9.63c-0.03,0.39-0.11,0.52-0.18,0.61
				c-0.08,0.1-0.04,0.22,0.15,0.22h2.24v-4.08h1.02l0.72,1.22l0.9,1.52l0.44,0.74c0.56,0.94,1.04,1.45,2.01,1.56
				c0.13,0.02,0.27,0.03,0.43,0.03c0.01,0,0.14,0,0.15,0c0.35,0,0.69-0.14,0.9-0.23c0.03-0.01,0.06-0.02,0.08-0.03
				C140.31,57.61,140.23,57.43,140.08,57.37z M134.82,51.36h-1.35h-0.08v-3.94h1.43c0.71,0,1.24,0.09,1.65,0.46
				c0.15,0.14,0.26,0.31,0.35,0.52c0.1,0.25,0.15,0.55,0.15,0.91C136.97,49.81,136.92,51.36,134.82,51.36z"/>
			<polygon points="142.97,52.92 145.52,52.92 145.52,51.36 142.97,51.36 142.97,48.99 146.91,48.99 146.91,47.41 140.76,47.41 
				140.76,57.01 146.91,57.01 146.91,55.42 142.97,55.42 			"/>
		</g>
	</g>
</g>
<path d="M189.65,51.81c-0.18-0.23-0.41-0.42-0.69-0.54c-0.28-0.13-0.56-0.19-0.86-0.19c-0.36,0-0.69,0.07-0.98,0.2
	c-0.29,0.14-0.54,0.32-0.75,0.56c-0.21,0.24-0.37,0.51-0.48,0.83c-0.11,0.32-0.17,0.66-0.17,1.02c0,0.34,0.05,0.66,0.16,0.96
	c0.11,0.3,0.27,0.57,0.47,0.8c0.2,0.23,0.46,0.41,0.75,0.54c0.29,0.13,0.63,0.2,1,0.2s0.69-0.08,0.97-0.23
	c0.28-0.15,0.51-0.36,0.71-0.63l0.73,0.55c-0.05,0.07-0.13,0.16-0.25,0.29c-0.12,0.12-0.28,0.25-0.48,0.37
	c-0.2,0.12-0.44,0.23-0.72,0.33c-0.28,0.09-0.6,0.14-0.97,0.14c-0.51,0-0.96-0.1-1.37-0.29c-0.41-0.19-0.75-0.45-1.04-0.76
	c-0.29-0.31-0.51-0.67-0.66-1.06c-0.15-0.4-0.23-0.79-0.23-1.2c0-0.49,0.08-0.95,0.24-1.36c0.16-0.42,0.39-0.78,0.68-1.09
	c0.29-0.3,0.64-0.54,1.05-0.71s0.86-0.25,1.36-0.25c0.42,0,0.84,0.08,1.24,0.24s0.74,0.41,1,0.75L189.65,51.81z"/>
<path d="M194.92,56.98c-0.49,0-0.94-0.09-1.35-0.26c-0.41-0.17-0.76-0.41-1.05-0.71c-0.29-0.3-0.52-0.66-0.69-1.07
	c-0.17-0.41-0.25-0.85-0.25-1.32s0.08-0.92,0.25-1.32c0.17-0.41,0.4-0.77,0.69-1.07s0.64-0.54,1.05-0.71
	c0.41-0.17,0.86-0.26,1.35-0.26s0.94,0.09,1.35,0.26c0.41,0.17,0.76,0.41,1.05,0.71c0.29,0.3,0.52,0.66,0.69,1.07
	c0.17,0.41,0.25,0.85,0.25,1.32s-0.08,0.92-0.25,1.32c-0.17,0.41-0.39,0.77-0.69,1.07c-0.29,0.3-0.64,0.54-1.05,0.71
	S195.4,56.98,194.92,56.98z M194.92,56.17c0.37,0,0.7-0.07,0.99-0.2c0.3-0.14,0.55-0.32,0.76-0.55c0.21-0.23,0.37-0.5,0.49-0.81
	c0.11-0.31,0.17-0.64,0.17-0.99s-0.06-0.68-0.17-0.99c-0.11-0.31-0.28-0.58-0.49-0.81c-0.21-0.23-0.46-0.41-0.76-0.55
	s-0.63-0.2-0.99-0.2c-0.37,0-0.7,0.07-1,0.2c-0.3,0.14-0.55,0.32-0.76,0.55c-0.21,0.23-0.37,0.5-0.49,0.81
	c-0.11,0.31-0.17,0.64-0.17,0.99s0.06,0.68,0.17,0.99c0.11,0.31,0.28,0.58,0.49,0.81c0.21,0.23,0.46,0.41,0.76,0.55
	C194.22,56.11,194.55,56.17,194.92,56.17z"/>
<path d="M199.86,50.44h1.29l2.04,4.83h0.04l2.02-4.83h1.29v6.38h-0.87v-5.25h-0.02l-2.16,5.25h-0.58l-2.16-5.25h-0.02v5.25h-0.87
	L199.86,50.44L199.86,50.44z"/>
<path d="M208.55,50.44h2.25c0.41,0,0.75,0.06,1.01,0.17c0.27,0.11,0.48,0.25,0.63,0.43c0.15,0.17,0.26,0.37,0.32,0.58
	c0.06,0.21,0.09,0.42,0.09,0.62c0,0.2-0.03,0.41-0.09,0.62c-0.06,0.21-0.17,0.41-0.32,0.58s-0.36,0.31-0.63,0.43
	c-0.27,0.11-0.6,0.17-1.01,0.17h-1.38v2.81h-0.87V50.44z M209.42,53.25h1.14c0.17,0,0.34-0.01,0.5-0.04
	c0.17-0.03,0.31-0.08,0.44-0.15c0.13-0.07,0.23-0.18,0.31-0.31c0.08-0.14,0.12-0.31,0.12-0.53s-0.04-0.39-0.12-0.53
	c-0.08-0.14-0.18-0.24-0.31-0.31c-0.13-0.07-0.28-0.12-0.44-0.15c-0.17-0.03-0.33-0.04-0.5-0.04h-1.14V53.25z"/>
<path d="M215.67,50.44h0.79l2.75,6.38h-1.01l-0.64-1.57h-3.06l-0.63,1.57h-1.01L215.67,50.44z M217.24,54.48l-1.19-2.93h-0.02
	l-1.21,2.93H217.24z"/>
<path d="M220.45,50.44h1.14l3.54,5.25h0.02v-5.25h0.87v6.38h-1.1l-3.58-5.25h-0.02v5.25h-0.87V50.44z"/>
<path d="M229.59,54.1l-2.43-3.66h1.11l1.75,2.8l1.8-2.8h1.06l-2.43,3.66v2.72h-0.87V54.1H229.59z"/>
<path d="M123.03,50.46h0.79l2.75,6.38h-1.01l-0.64-1.57h-3.06l-0.63,1.57h-1.01L123.03,50.46z M124.59,54.51l-1.19-2.93h-0.02
	l-1.21,2.93H124.59z"/>
<g>
	<path d="M180.2,53.25c1.04,0,1.91,0.82,1.91,1.88c0,1.09-0.87,1.9-1.91,1.9s-1.92-0.82-1.92-1.9
		C178.28,54.07,179.15,53.25,180.2,53.25z M180.2,56.76c0.88,0,1.56-0.7,1.56-1.62c0-0.91-0.68-1.6-1.56-1.6
		c-0.89,0-1.57,0.7-1.57,1.6C178.63,56.06,179.31,56.76,180.2,56.76z M179.45,54.04h0.86c0.53,0,0.78,0.21,0.78,0.64
		c0,0.4-0.25,0.57-0.58,0.6l0.64,0.98h-0.37l-0.61-0.96h-0.37v0.96h-0.35V54.04z M179.8,55.02h0.36c0.31,0,0.58-0.02,0.58-0.37
		c0-0.3-0.25-0.34-0.49-0.34h-0.46v0.71H179.8z"/>
</g>
</svg>
